<svg data-v-423bf9ae="" xmlns="http://www.w3.org/2000/svg" viewBox="0 0 592.0763258598174 60" class="font"><!----><!----><!----><g data-v-423bf9ae="" id="a1584434-f386-4d03-bfb7-f84cb1ef61c4" fill="#000000" transform="matrix(4.048582818792171,0,0,4.048582818792171,-9.01677234051482,-1.8218626090716796)"><path d="M12.49 10.14L12.45 10.30L12.45 10.30Q12.36 10.64 11.10 11.60L11.10 11.60L11.10 11.60Q9.84 12.56 9.52 12.56L9.52 12.56L9.52 12.56Q9.55 12.56 8.93 12.19L8.93 12.19L8.93 12.19Q8.32 11.82 8.09 11.84L8.09 11.84L8.54 10.15L8.54 10.15Q8.64 9.80 8.64 9.35L8.64 9.35L8.64 9.35Q8.64 8.36 8.26 7.60L8.26 7.60L8.26 7.60Q7.81 6.75 7.08 6.75L7.08 6.75L7.08 6.75Q6.17 6.75 5.80 8.18L5.80 8.18L5.45 9.48L5.45 9.48Q5.70 9.83 6.29 10.51L6.29 10.51L6.29 10.51Q6.03 10.91 5.03 11.82L5.03 11.82L5.03 11.82Q3.84 12.89 3.32 12.89L3.32 12.89L3.32 12.89Q3.14 12.89 2.38 11.87L2.38 11.87L2.83 10.19L2.83 10.19Q2.95 9.97 3.09 9.63L3.09 9.63L4.38 4.83L4.38 4.83Q4.23 4.62 3.67 3.95L3.67 3.95L3.67 3.95Q2.62 4.62 2.48 4.62L2.48 4.62L2.25 4.62L2.25 4.62Q2.21 4.58 2.24 4.51L2.24 4.51L2.24 4.51Q2.34 4.10 4.05 2.65L4.05 2.65L4.05 2.65Q5.77 1.20 6.27 1.20L6.27 1.20L6.27 1.20Q6.37 1.20 6.92 1.79L6.92 1.79L6.92 1.79Q7.46 2.38 7.42 2.52L7.42 2.52L6.47 6.15L6.47 6.15Q8.29 4.45 10.09 2.77L10.09 2.77L10.09 2.77Q12.52 0.60 13.13 0.64L13.13 0.64L13.13 0.64Q13.16 0.67 13.15 0.76L13.15 0.76L13.15 0.76Q13.06 1.04 11.38 2.56L11.38 2.56L11.38 2.56Q10.36 3.47 9.34 4.37L9.34 4.37L9.34 4.37Q9.42 4.37 9.65 4.35L9.65 4.35L9.65 4.35Q9.87 4.33 9.91 4.33L9.91 4.33L9.91 4.33Q11.66 4.33 11.66 6.96L11.66 6.96L11.66 6.96Q11.66 7.34 11.62 7.70L11.62 7.70L11.19 9.39L11.19 9.39Q11.24 9.35 11.28 9.35L11.28 9.35L11.28 9.35Q11.44 9.35 11.93 9.72L11.93 9.72L11.93 9.72Q12.21 9.93 12.49 10.14L12.49 10.14ZM23.45 10.37L23.63 10.37L23.63 10.37Q23.58 10.79 22.28 11.80L22.28 11.80L22.28 11.80Q20.99 12.81 20.64 12.81L20.64 12.81L20.64 12.81Q20.55 12.81 20.15 12.31L20.15 12.31L20.15 12.31Q19.74 11.82 19.74 11.55L19.74 11.55L19.74 11.55Q19.74 11.49 19.75 11.45L19.75 11.45L19.99 10.49L19.99 10.49Q17.98 11.86 17.57 12.08L17.57 12.08L17.57 12.08Q16.66 12.57 15.68 12.57L15.68 12.57L15.68 12.57Q14.87 12.57 14.31 12.19L14.31 12.19L14.31 12.19Q13.68 11.76 13.68 10.98L13.68 10.98L13.68 10.98Q13.68 10.72 13.75 10.43L13.75 10.43L13.75 10.43Q14.22 8.65 16.79 6.38L16.79 6.38L16.79 6.38Q16.76 6.34 16.66 6.34L16.66 6.34L16.66 6.34Q16.55 6.34 16.31 6.40L16.31 6.40L16.31 6.40Q16.07 6.45 16.04 6.45L16.04 6.45L16.04 6.45Q15.85 6.45 15.75 6.31L15.75 6.31L15.75 6.31Q15.85 6.08 16.84 5.22L16.84 5.22L16.84 5.22Q17.89 4.28 18.27 4.28L18.27 4.28L18.27 4.28Q18.31 4.28 18.36 4.33L18.36 4.33L18.36 4.33Q18.41 4.37 18.45 4.37L18.45 4.37L18.45 4.37Q18.51 4.37 18.61 4.33L18.61 4.33L18.61 4.33Q18.72 4.28 18.76 4.30L18.76 4.30L19.99 4.30L19.99 4.30Q20.03 4.34 20.01 4.44L20.01 4.44L20.01 4.44Q19.92 4.75 19.10 5.35L19.10 5.35L19.10 5.35Q17.95 6.20 17.51 6.62L17.51 6.62L17.51 6.62Q16.60 7.53 16.34 8.55L16.34 8.55L16.34 8.55Q16.27 8.82 16.27 9.06L16.27 9.06L16.27 9.06Q16.27 9.74 16.83 10.14L16.83 10.14L16.83 10.14Q17.33 10.49 18.12 10.49L18.12 10.49L18.12 10.49Q19.12 10.49 20.26 9.60L20.26 9.60L20.75 7.78L20.75 7.78Q20.73 7.69 20.73 7.49L20.73 7.49L21.03 6.40L21.03 6.40Q20.94 6.34 20.10 5.91L20.10 5.91L20.16 5.70L20.16 5.70Q20.22 5.47 21.30 4.63L21.30 4.63L21.30 4.63Q22.39 3.79 22.62 3.79L22.62 3.79L22.62 3.79Q22.75 3.79 23.65 4.38L23.65 4.38L23.34 5.54L23.34 5.54Q23.37 5.60 23.35 5.77L23.35 5.77L22.30 9.73L22.30 9.73Q22.43 9.84 22.71 10.23L22.71 10.23L22.71 10.23Q22.93 10.57 22.99 10.57L22.99 10.57L22.99 10.57Q23.04 10.57 23.22 10.48L23.22 10.48L23.22 10.48Q23.39 10.39 23.45 10.37L23.45 10.37ZM33.61 4.40L33.61 4.40L33.61 4.40Q31.92 6.72 29.50 6.72L29.50 6.72L29.50 6.72Q29.25 6.72 28.01 6.45L28.01 6.45L28.01 6.45Q28.07 6.99 29.01 7.22L29.01 7.22L29.01 7.22Q29.85 7.42 30.69 7.62L30.69 7.62L30.69 7.62Q31.58 7.95 31.58 8.72L31.58 8.72L31.58 8.72Q31.58 8.95 31.51 9.23L31.51 9.23L31.51 9.23Q31.35 9.87 29.48 11.23L29.48 11.23L29.48 11.23Q27.75 12.50 27.44 12.50L27.44 12.50L27.44 12.50Q27.50 12.50 26.68 12.14L26.68 12.14L26.68 12.14Q25.87 11.79 25.20 11.79L25.20 11.79L25.20 11.79Q24.67 11.79 23.98 11.94L23.98 11.94L23.98 11.94Q23.65 12.03 23.30 12.11L23.30 12.11L23.30 12.11Q24.39 10.77 25.48 10.25L25.48 10.25L25.48 10.25Q26.31 9.86 27.45 9.86L27.45 9.86L27.45 9.86Q27.76 9.86 28.28 10.00L28.28 10.00L28.28 10.00Q28.88 10.15 29.09 10.18L29.09 10.18L29.09 10.18Q28.71 9.58 27.73 9.34L27.73 9.34L27.73 9.34Q26.95 9.17 26.18 9.00L26.18 9.00L26.18 9.00Q25.44 8.75 25.44 8.05L25.44 8.05L25.44 8.05Q25.44 7.78 25.52 7.46L25.52 7.46L25.52 7.46Q25.68 6.87 27.23 5.47L27.23 5.47L27.23 5.47Q28.84 4.03 29.47 4.03L29.47 4.03L29.47 4.03Q29.44 4.03 30.20 4.41L30.20 4.41L30.20 4.41Q30.95 4.79 31.78 4.79L31.78 4.79L31.78 4.79Q32.26 4.79 32.76 4.63L32.76 4.63L32.76 4.63Q33.43 4.42 33.61 4.40ZM39.80 12.85L39.80 12.85L39.80 12.85Q39.69 12.31 38.92 12.31L38.92 12.31L38.92 12.31Q38.60 12.31 37.86 12.46L37.86 12.46L37.32 12.40L37.32 12.40Q38.08 11.63 38.82 10.86L38.82 10.86L38.82 10.86Q39.34 10.32 39.55 9.53L39.55 9.53L39.55 9.53Q39.65 9.16 39.65 8.62L39.65 8.62L39.65 8.62Q39.65 7.73 39.34 7.15L39.34 7.15L39.34 7.15Q38.95 6.41 38.14 6.41L38.14 6.41L38.14 6.41Q37.87 6.41 36.69 7.34L36.69 7.34L36.26 8.92L36.26 8.92Q36.22 8.96 36.13 9.10L36.13 9.10L35.80 10.35L35.80 10.35Q35.81 10.35 36.16 10.67L36.16 10.67L36.16 10.67Q36.43 10.92 36.40 11.02L36.40 11.02L36.40 11.02Q36.29 11.41 35.21 12.18L35.21 12.18L35.21 12.18Q34.23 12.87 33.96 12.92L33.96 12.92L33.96 12.92Q33.89 12.82 33.32 12.25L33.32 12.25L33.71 10.78L33.71 10.78Q33.75 10.74 33.84 10.61L33.84 10.61L34.41 8.46L34.41 8.46Q34.40 8.37 34.40 8.20L34.40 8.20L35.50 4.07L35.50 4.07Q35.35 3.79 34.89 3.28L34.89 3.28L34.89 3.28Q34.66 3.42 34.05 3.61L34.05 3.61L34.10 3.42L34.10 3.42Q34.19 3.08 35.57 2.11L35.57 2.11L35.57 2.11Q36.92 1.18 37.16 1.18L37.16 1.18L37.16 1.18Q37.27 1.18 37.63 1.66L37.63 1.66L37.63 1.66Q37.98 2.14 37.98 2.24L37.98 2.24L36.88 6.57L36.88 6.57Q39.61 4.44 40.43 4.44L40.43 4.44L40.43 4.44Q41.33 4.44 41.76 5.21L41.76 5.21L41.76 5.21Q42.13 5.82 42.13 6.78L42.13 6.78L42.13 6.78Q42.13 7.32 42 7.74L42 7.74L42 7.74Q41.65 9.07 40.29 10.37L40.29 10.37L40.29 10.37Q40.47 10.37 40.83 10.35L40.83 10.35L40.83 10.35Q41.19 10.33 41.20 10.33L41.20 10.33L41.20 10.33Q41.51 10.33 41.79 10.42L41.79 10.42L41.79 10.42Q42.25 10.54 42.25 10.84L42.25 10.84L42.25 10.84Q42.25 11.19 41.19 12.00L41.19 12.00L41.19 12.00Q40.19 12.77 39.80 12.85ZM57.53 5.73L57.53 5.73L57.53 5.73Q57.12 7.24 54.81 9.46L54.81 9.46L54.81 9.46Q52.47 11.73 50.51 12.42L50.51 12.42L50.51 12.42Q49.97 11.91 49.01 10.78L49.01 10.78L49.01 10.78Q48.38 11.30 47.52 11.83L47.52 11.83L47.52 11.83Q46.35 12.54 45.84 12.54L45.84 12.54L45.84 12.54Q44.88 12.54 44.21 11.98L44.21 11.98L44.21 11.98Q43.50 11.37 43.50 10.42L43.50 10.42L43.50 10.42Q43.50 10.07 43.60 9.70L43.60 9.70L43.60 9.70Q43.82 8.88 44.65 7.75L44.65 7.75L44.65 7.75Q45.49 6.62 46.23 6.15L46.23 6.15L46.23 6.15Q45.91 6.09 45.28 6.12L45.28 6.12L45.28 6.12Q45.21 6.02 45.21 5.99L45.21 5.99L45.21 5.99Q45.32 5.59 46.48 4.68L46.48 4.68L46.48 4.68Q47.64 3.78 47.96 3.78L47.96 3.78L47.96 3.78Q47.99 3.78 48.05 3.88L48.05 3.88L49.45 3.88L49.45 3.88Q49.41 3.88 49.74 4.02L49.74 4.02L49.74 4.02Q48.82 5.08 47.98 5.70L47.98 5.70L47.98 5.70Q47.05 6.36 47.03 6.40L47.03 6.40L47.03 6.40Q46.68 6.76 46.42 7.69L46.42 7.69L46.42 7.69Q46.33 8.06 46.33 8.40L46.33 8.40L46.33 8.40Q46.33 9.25 46.91 9.76L46.91 9.76L46.91 9.76Q47.49 10.26 48.47 10.26L48.47 10.26L48.47 10.26Q48.57 10.26 48.78 10.18L48.78 10.18L48.78 10.18Q49 10.11 49.01 10.04L49.01 10.04L49.95 6.37L49.95 6.37Q49.97 6.16 49.67 6.02L49.67 6.02L49.67 6.02Q49.22 5.78 49.20 5.75L49.20 5.75L49.20 5.75Q49.35 5.39 50.34 4.49L50.34 4.49L50.34 4.49Q51.44 3.53 51.95 3.53L51.95 3.53L51.95 3.53Q52.02 3.53 52.42 3.81L52.42 3.81L52.42 3.81Q52.81 4.10 52.84 4.16L52.84 4.16L51.80 8.04L51.80 8.04Q51.70 8.39 52.30 9.17L52.30 9.17L52.30 9.17Q52.89 9.95 53.20 9.95L53.20 9.95L53.20 9.95Q53.55 9.95 54.15 8.86L54.15 8.86L54.15 8.86Q54.63 8.01 54.70 7.70L54.70 7.70L54.70 7.70Q54.84 7.20 54.84 6.80L54.84 6.80L54.84 6.80Q54.84 5.53 53.41 5.46L53.41 5.46L53.41 5.46Q53.79 4.79 54.80 4.02L54.80 4.02L54.80 4.02Q55.82 3.26 56.45 3.26L56.45 3.26L56.45 3.26Q57.64 3.26 57.64 4.84L57.64 4.84L57.64 4.84Q57.64 5.32 57.53 5.73ZM65.77 10.44L65.77 10.44L65.77 10.44Q65.58 10.77 64.53 11.68L64.53 11.68L64.53 11.68Q63.36 12.68 62.96 12.68L62.96 12.68L62.96 12.68Q62.90 12.68 62.43 12.10L62.43 12.10L62.43 12.10Q61.95 11.51 61.98 11.28L61.98 11.28L61.98 11.28Q61.49 11.76 60.45 12.22L60.45 12.22L60.45 12.22Q59.42 12.68 58.90 12.68L58.90 12.68L58.90 12.68Q58.18 12.68 57.78 12.12L57.78 12.12L57.78 12.12Q57.43 11.65 57.43 10.96L57.43 10.96L57.43 10.96Q57.43 10.70 57.50 10.46L57.50 10.46L57.50 10.46Q57.97 8.64 60.13 6.72L60.13 6.72L60.13 6.72Q62.05 5.01 63.45 4.65L63.45 4.65L63.45 4.65Q63.49 4.63 63.67 4.55L63.67 4.55L63.67 4.55Q63.85 4.47 63.91 4.47L63.91 4.47L63.91 4.47Q63.88 4.47 64.22 4.75L64.22 4.75L64.22 4.75Q64.57 5.04 65.04 5.04L65.04 5.04L65.04 5.04Q65.56 5.04 65.80 4.93L65.80 4.93L65.80 4.93Q66.04 4.83 66.26 4.86L66.26 4.86L66.26 4.86Q66.21 5.19 65.35 5.85L65.35 5.85L65.03 7.04L65.03 7.04Q65.03 7.18 65.02 7.42L65.02 7.42L64.43 9.59L64.43 9.59Q64.69 9.94 65.24 10.58L65.24 10.58L65.24 10.58Q65.65 10.42 65.77 10.44ZM62.24 10.39L62.24 10.39L62.51 9.37L62.51 9.37Q62.51 9.23 62.54 8.99L62.54 8.99L63.06 7.07L63.06 7.07Q63.01 7.06 62.50 7.06L62.50 7.06L62.50 7.06Q62.24 7.06 61.92 6.79L61.92 6.79L61.92 6.79Q61.71 6.59 61.50 6.40L61.50 6.40L61.50 6.40Q61.01 6.62 60.52 7.42L60.52 7.42L60.52 7.42Q60.10 8.09 59.95 8.67L59.95 8.67L59.95 8.67Q59.89 8.86 59.89 9.10L59.89 9.10L59.89 9.10Q59.89 9.73 60.20 10.18L60.20 10.18L60.20 10.18Q60.55 10.71 61.19 10.71L61.19 10.71L61.19 10.71Q61.50 10.71 62.24 10.39ZM75.94 10.50L75.94 10.50L75.94 10.50Q75.85 10.86 74.80 11.66L74.80 11.66L74.80 11.66Q73.74 12.46 73.46 12.46L73.46 12.46L73.46 12.46Q73.46 12.46 73.15 12.32L73.15 12.32L73.15 12.32Q72.84 12.18 72.45 12.18L72.45 12.18L72.45 12.18Q72.45 12.18 71.61 12.25L71.61 12.25L71.61 12.25Q71.54 12.17 71.54 12.11L71.54 12.11L71.54 12.11Q72.09 11.52 72.51 10.98L72.51 10.98L72.51 10.98Q73.51 9.65 73.79 8.62L73.79 8.62L73.79 8.62Q73.99 7.88 73.99 7.73L73.99 7.73L73.99 7.73Q73.99 7.56 73.96 7.34L73.96 7.34L73.96 7.34Q73.92 7.11 73.88 6.88L73.88 6.88L73.88 6.88Q73.84 6.65 73.67 6.51L73.67 6.51L73.67 6.51Q73.36 6.24 72.87 6.01L72.87 6.01L72.87 6.01Q72.30 5.71 71.93 5.71L71.93 5.71L71.93 5.71Q71.65 5.71 71.57 5.77L71.57 5.77L71.57 5.77Q71.16 6.05 71.02 6.12L71.02 6.12L70.45 8.27L70.45 8.27Q70.32 8.79 69.83 9.98L69.83 9.98L69.83 9.98Q69.90 10.07 70.34 10.43L70.34 10.43L70.34 10.43Q70.66 10.71 70.64 10.77L70.64 10.77L70.64 10.77Q70.56 11.07 69.48 11.91L69.48 11.91L69.48 11.91Q68.39 12.74 68.11 12.74L68.11 12.74L68.11 12.74Q67.87 12.74 67.54 12.31L67.54 12.31L67.54 12.31Q67.20 11.89 67.24 11.70L67.24 11.70L67.24 11.70Q67.26 11.66 67.52 10.99L67.52 10.99L67.52 10.99Q67.77 10.32 67.79 10.26L67.79 10.26L68.53 7.50L68.53 7.50Q68.56 7.43 68.70 7.17L68.70 7.17L68.70 7.17Q68.54 7.04 67.79 6.41L67.79 6.41L67.79 6.41Q67.24 6.73 67.09 6.73L67.09 6.73L67.09 6.73Q67.05 6.73 67.00 6.72L67.00 6.72L67.00 6.72Q67.12 6.27 68.36 5.28L68.36 5.28L68.36 5.28Q69.61 4.28 70.08 4.28L70.08 4.28L70.08 4.28Q70.21 4.28 70.71 4.65L70.71 4.65L70.71 4.65Q71.29 5.05 71.34 5.31L71.34 5.31L71.34 5.31Q72.45 4.41 72.98 4.09L72.98 4.09L72.98 4.09Q73.74 3.64 74.35 3.64L74.35 3.64L74.35 3.64Q74.69 3.64 75.22 3.82L75.22 3.82L75.22 3.82Q75.95 4.09 76.36 4.58L76.36 4.58L76.36 4.58Q76.55 4.80 76.55 5.56L76.55 5.56L76.55 5.56Q76.55 6.23 76.43 6.69L76.43 6.69L76.43 6.69Q76.05 8.11 74.42 10.07L74.42 10.07L74.42 10.07Q74.87 10.11 75.33 10.15L75.33 10.15L75.33 10.15Q76.01 10.25 75.94 10.50ZM84.38 5.14L84.56 5.19L84.56 5.19Q84.34 5.73 83.24 6.50L83.24 6.50L83.24 6.50Q82.15 7.28 81.45 7.43L81.45 7.43L80.99 9.17L80.99 9.17Q80.95 9.35 80.60 10.02L80.60 10.02L80.60 10.02Q79.88 11.40 79.35 12.07L79.35 12.07L79.35 12.07Q78.33 13.38 76.99 13.85L76.99 13.85L76.99 13.85Q77.10 13.72 77.81 12.47L77.81 12.47L77.81 12.47Q78.58 11.13 78.67 10.79L78.67 10.79L79.63 7.21L79.63 7.21Q79.32 7.00 78.90 7.00L78.90 7.00L78.90 7.00Q78.46 7.00 77.38 7.52L77.38 7.52L77.21 7.46L77.21 7.46Q77.41 7.00 78.43 6.26L78.43 6.26L78.43 6.26Q79.32 5.61 80.08 5.26L80.08 5.26L80.46 3.84L80.46 3.84Q80.47 3.78 80.24 3.48L80.24 3.48L80.24 3.48Q80.01 3.18 79.97 3.18L79.97 3.18L79.97 3.18Q79.94 3.18 79.77 3.26L79.77 3.26L79.77 3.26Q79.59 3.35 79.44 3.32L79.44 3.32L79.44 3.32Q79.63 2.98 80.63 2.13L80.63 2.13L80.63 2.13Q81.73 1.18 82.15 1.18L82.15 1.18L82.15 1.18Q82.24 1.18 82.84 2.00L82.84 2.00L82.10 4.76L82.10 4.76Q82.05 4.93 82.05 5.05L82.05 5.05L82.05 5.05Q82.05 5.40 82.38 5.50L82.38 5.50L82.38 5.50Q82.54 5.54 83.03 5.54L83.03 5.54L83.03 5.54Q83.44 5.54 83.55 5.52L83.55 5.52L83.55 5.52Q83.66 5.49 84.38 5.14L84.38 5.14ZM91.27 12.85L91.27 12.85L91.27 12.85Q91.15 12.31 90.38 12.31L90.38 12.31L90.38 12.31Q90.06 12.31 89.32 12.46L89.32 12.46L88.79 12.40L88.79 12.40Q89.54 11.63 90.29 10.86L90.29 10.86L90.29 10.86Q90.80 10.32 91.01 9.53L91.01 9.53L91.01 9.53Q91.11 9.16 91.11 8.62L91.11 8.62L91.11 8.62Q91.11 7.73 90.80 7.15L90.80 7.15L90.80 7.15Q90.41 6.41 89.60 6.41L89.60 6.41L89.60 6.41Q89.33 6.41 88.16 7.34L88.16 7.34L87.72 8.92L87.72 8.92Q87.68 8.96 87.60 9.10L87.60 9.10L87.26 10.35L87.26 10.35Q87.28 10.35 87.63 10.67L87.63 10.67L87.63 10.67Q87.89 10.92 87.86 11.02L87.86 11.02L87.86 11.02Q87.75 11.41 86.67 12.18L86.67 12.18L86.67 12.18Q85.69 12.87 85.43 12.92L85.43 12.92L85.43 12.92Q85.36 12.82 84.78 12.25L84.78 12.25L85.18 10.78L85.18 10.78Q85.22 10.74 85.30 10.61L85.30 10.61L85.88 8.46L85.88 8.46Q85.86 8.37 85.86 8.20L85.86 8.20L86.97 4.07L86.97 4.07Q86.81 3.79 86.35 3.28L86.35 3.28L86.35 3.28Q86.13 3.42 85.51 3.61L85.51 3.61L85.57 3.42L85.57 3.42Q85.65 3.08 87.04 2.11L87.04 2.11L87.04 2.11Q88.38 1.18 88.62 1.18L88.62 1.18L88.62 1.18Q88.73 1.18 89.09 1.66L89.09 1.66L89.09 1.66Q89.45 2.14 89.45 2.24L89.45 2.24L88.34 6.57L88.34 6.57Q91.07 4.44 91.90 4.44L91.90 4.44L91.90 4.44Q92.79 4.44 93.23 5.21L93.23 5.21L93.23 5.21Q93.59 5.82 93.59 6.78L93.59 6.78L93.59 6.78Q93.59 7.32 93.46 7.74L93.46 7.74L93.46 7.74Q93.11 9.07 91.76 10.37L91.76 10.37L91.76 10.37Q91.94 10.37 92.30 10.35L92.30 10.35L92.30 10.35Q92.65 10.33 92.67 10.33L92.67 10.33L92.67 10.33Q92.97 10.33 93.25 10.42L93.25 10.42L93.25 10.42Q93.72 10.54 93.72 10.84L93.72 10.84L93.72 10.84Q93.72 11.19 92.65 12.00L92.65 12.00L92.65 12.00Q91.66 12.77 91.27 12.85ZM113.86 9.41L114.06 9.45L114.06 9.45Q113.90 10.01 112.48 11.05L112.48 11.05L112.48 11.05Q111.06 12.08 110.26 12.22L110.26 12.22L110.26 12.22Q110.22 12.22 110.05 12.32L110.05 12.32L110.05 12.32Q109.87 12.42 109.80 12.42L109.80 12.42L108.14 12.42L108.14 12.42Q107.93 12.42 107.46 11.93L107.46 11.93L107.46 11.93Q107.06 11.49 106.93 11.26L106.93 11.26L106.93 11.26Q106.53 10.50 105.87 9.07L105.87 9.07L105.87 9.07Q105.27 9.31 105.11 10.04L105.11 10.04L105.11 10.04Q105.24 10.14 105.52 10.51L105.52 10.51L105.52 10.51Q105.85 10.98 105.81 11.12L105.81 11.12L105.81 11.12Q105.69 11.59 104.36 12.52L104.36 12.52L104.36 12.52Q103.12 13.37 102.86 13.37L102.86 13.37L102.86 13.37Q102.20 12.56 102.20 12.14L102.20 12.14L102.20 12.14Q102.20 11.96 102.34 11.68L102.34 11.68L102.34 11.68Q102.52 11.33 102.56 11.13L102.56 11.13L104.16 5.21L104.16 5.21Q104.24 4.90 104.24 4.73L104.24 4.73L104.24 4.73Q104.24 4.52 104.03 4.30L104.03 4.30L104.03 4.30Q103.60 3.85 103.40 3.58L103.40 3.58L103.40 3.58Q103.04 3.79 102.56 4.02L102.56 4.02L102.33 3.96L102.33 3.96Q102.79 3.16 104.10 2.18L104.10 2.18L104.10 2.18Q105.49 1.18 106.23 1.18L106.23 1.18L106.23 1.18Q106.30 1.18 106.69 1.58L106.69 1.58L106.69 1.58Q107.09 1.99 107.23 2.23L107.23 2.23L107.23 2.23Q109.16 0.45 109.76 0.45L109.76 0.45L109.76 0.45Q110.42 0.45 111.27 0.92L111.27 0.92L111.27 0.92Q112.18 1.43 112.28 1.99L112.28 1.99L112.28 1.99Q112.38 2.52 112.21 3.12L112.21 3.12L112.21 3.12Q111.97 4.03 111.02 5.04L111.02 5.04L111.02 5.04Q110.33 5.77 108.91 6.92L108.91 6.92L108.91 6.92Q109.26 7.69 109.63 8.47L109.63 8.47L109.63 8.47Q110.00 9.25 110.42 9.62L110.42 9.62L110.42 9.62Q110.95 10.05 111.73 10.05L111.73 10.05L111.73 10.05Q112.38 10.05 112.57 9.98L112.57 9.98L112.57 9.98Q113.22 9.69 113.86 9.41L113.86 9.41ZM109.27 5.29L109.27 5.29L109.27 5.29Q109.33 5.08 109.33 4.86L109.33 4.86L109.33 4.86Q109.33 4.09 108.72 3.51L108.72 3.51L108.72 3.51Q108.11 2.93 107.32 2.93L107.32 2.93L107.14 2.93L105.74 8.16L105.74 8.16Q106.19 7.81 107.16 7.23L107.16 7.23L107.16 7.23Q108.14 6.65 108.50 6.34L108.50 6.34L108.50 6.34Q109.12 5.84 109.27 5.29ZM121.02 9.81L121.02 9.81L121.02 9.81Q120.88 10.32 119.28 11.31L119.28 11.31L119.28 11.31Q117.91 12.17 117.53 12.26L117.53 12.26L117.53 12.26Q116.96 12.42 116.61 12.42L116.61 12.42L116.61 12.42Q116.24 12.42 115.47 12.16L115.47 12.16L115.47 12.16Q114.69 11.90 114.48 11.69L114.48 11.69L114.48 11.69Q114.10 11.30 114.10 10.51L114.10 10.51L114.10 10.51Q114.10 10.00 114.25 9.41L114.25 9.41L114.25 9.41Q115.01 6.57 119.32 4.51L119.32 4.51L119.32 4.51Q119.39 4.69 119.77 4.86L119.77 4.86L119.77 4.86Q120.20 5.05 120.67 5.05L120.67 5.05L120.67 5.05Q120.95 5.05 121.09 4.96L121.09 4.96L121.09 4.96Q121.31 4.83 121.56 4.76L121.56 4.76L121.56 4.76Q121.60 4.82 121.58 4.89L121.58 4.89L121.58 4.89Q121.53 5.05 121.02 5.52L121.02 5.52L121.02 5.52Q119.48 6.89 118.52 6.89L118.52 6.89L118.52 6.89Q118.26 6.89 117.78 6.75L117.78 6.75L117.78 6.75Q117.31 6.62 117.14 6.48L117.14 6.48L117.14 6.48Q117.00 6.66 116.75 7.08L116.75 7.08L116.51 8.04L116.51 8.04Q116.54 8.01 116.89 7.79L116.89 7.79L116.89 7.79Q117.25 7.57 117.35 7.57L117.35 7.57L117.35 7.57Q118.34 7.78 118.43 7.78L118.43 7.78L118.43 7.78Q119.36 7.78 119.88 7.49L119.88 7.49L119.88 7.49Q120.75 6.99 121.11 6.87L121.11 6.87L121.11 7.01L121.11 7.01Q120.16 8.08 118.93 8.81L118.93 8.81L118.93 8.81Q117.70 9.55 116.66 9.65L116.66 9.65L116.66 9.65Q116.73 9.91 117.45 10.25L117.45 10.25L117.45 10.25Q118.17 10.58 118.75 10.58L118.75 10.58L118.75 10.58Q119.31 10.58 119.84 10.28L119.84 10.28L119.84 10.28Q120.64 9.81 121.00 9.69L121.00 9.69L121.00 9.69Q121.03 9.74 121.02 9.81ZM129.44 7.17L129.44 7.17L129.44 7.17Q129.39 7.49 129.32 7.83L129.32 7.83L129.32 7.83Q129.23 8.22 129.07 8.43L129.07 8.43L129.07 8.43Q127.82 9.88 126.52 10.98L126.52 10.98L126.52 10.98Q124.63 12.56 123.42 12.56L123.42 12.56L123.42 12.56Q122.63 12.56 122.23 11.94L122.23 11.94L122.23 11.94Q121.93 11.44 121.93 10.65L121.93 10.65L121.93 10.65Q121.93 10.19 122.02 9.80L122.02 9.80L122.02 9.80Q122.36 8.58 123.83 7.06L123.83 7.06L123.83 7.06Q125.30 5.54 126.63 5.00L126.63 5.00L126.63 5.00Q126.69 5.19 126.70 5.21L126.70 5.21L126.70 5.21Q126.78 5.36 126.92 5.36L126.92 5.36L127.90 5.36L127.90 5.36Q127.96 5.28 127.99 5.10L127.99 5.10L127.99 5.10Q128.02 4.96 128.03 4.83L128.03 4.83L128.27 3.93L128.27 3.93Q128.30 3.82 127.96 3.53L127.96 3.53L127.96 3.53Q127.58 3.19 127.55 3.14L127.55 3.14L127.55 3.14Q127.39 3.25 127.20 3.35L127.20 3.35L127.20 3.35Q126.98 3.46 126.74 3.46L126.74 3.46L126.74 3.46Q126.85 3.02 128.14 2.10L128.14 2.10L128.14 2.10Q129.37 1.20 129.71 1.20L129.71 1.20L129.71 1.20Q129.78 1.20 130.22 1.66L130.22 1.66L130.22 1.66Q130.66 2.11 130.63 2.20L130.63 2.20L130.31 3.42L130.31 3.42Q130.30 3.44 130.29 3.60L130.29 3.60L130.29 3.60Q130.28 3.77 130.28 3.81L130.28 3.81L129.78 5.68L129.78 5.68Q129.78 5.68 129.65 6.31L129.65 6.31L129.65 6.31Q129.51 6.94 129.44 7.17ZM127.15 8.65L127.15 8.65L127.71 6.29L127.71 6.29Q127.47 6.44 126.85 6.78L126.85 6.78L126.85 6.78Q126.04 7.22 125.87 7.22L125.87 7.22L124.73 7.22L124.73 7.22Q124.64 7.32 124.36 8.19L124.36 8.19L124.36 8.19Q124.25 8.58 124.25 8.99L124.25 8.99L124.25 8.99Q124.25 9.77 124.63 10.23L124.63 10.23L124.63 10.23Q125.09 10.78 125.97 10.70L125.97 10.70L125.97 10.70Q126.60 10.21 126.84 9.69L126.84 9.69L126.84 9.69Q126.92 9.51 127.15 8.65ZM137.66 7.17L137.66 7.17L137.66 7.17Q137.61 7.49 137.54 7.83L137.54 7.83L137.54 7.83Q137.45 8.22 137.28 8.43L137.28 8.43L137.28 8.43Q136.04 9.88 134.74 10.98L134.74 10.98L134.74 10.98Q132.85 12.56 131.64 12.56L131.64 12.56L131.64 12.56Q130.84 12.56 130.45 11.94L130.45 11.94L130.45 11.94Q130.14 11.44 130.14 10.65L130.14 10.65L130.14 10.65Q130.14 10.19 130.24 9.80L130.24 9.80L130.24 9.80Q130.58 8.58 132.05 7.06L132.05 7.06L132.05 7.06Q133.52 5.54 134.85 5.00L134.85 5.00L134.85 5.00Q134.90 5.19 134.92 5.21L134.92 5.21L134.92 5.21Q135.00 5.36 135.14 5.36L135.14 5.36L136.12 5.36L136.12 5.36Q136.18 5.28 136.21 5.10L136.21 5.10L136.21 5.10Q136.23 4.96 136.25 4.83L136.25 4.83L136.49 3.93L136.49 3.93Q136.51 3.82 136.18 3.53L136.18 3.53L136.18 3.53Q135.80 3.19 135.77 3.14L135.77 3.14L135.77 3.14Q135.60 3.25 135.42 3.35L135.42 3.35L135.42 3.35Q135.20 3.46 134.96 3.46L134.96 3.46L134.96 3.46Q135.07 3.02 136.36 2.10L136.36 2.10L136.36 2.10Q137.59 1.20 137.93 1.20L137.93 1.20L137.93 1.20Q138.00 1.20 138.44 1.66L138.44 1.66L138.44 1.66Q138.88 2.11 138.85 2.20L138.85 2.20L138.53 3.42L138.53 3.42Q138.52 3.44 138.51 3.60L138.51 3.60L138.51 3.60Q138.50 3.77 138.50 3.81L138.50 3.81L138.00 5.68L138.00 5.68Q138.00 5.68 137.87 6.31L137.87 6.31L137.87 6.31Q137.73 6.94 137.66 7.17ZM135.37 8.65L135.37 8.65L135.93 6.29L135.93 6.29Q135.69 6.44 135.07 6.78L135.07 6.78L135.07 6.78Q134.26 7.22 134.09 7.22L134.09 7.22L132.94 7.22L132.94 7.22Q132.86 7.32 132.58 8.19L132.58 8.19L132.58 8.19Q132.47 8.58 132.47 8.99L132.47 8.99L132.47 8.99Q132.47 9.77 132.85 10.23L132.85 10.23L132.85 10.23Q133.31 10.78 134.19 10.70L134.19 10.70L134.19 10.70Q134.82 10.21 135.06 9.69L135.06 9.69L135.06 9.69Q135.14 9.51 135.37 8.65ZM148.37 10.21L148.37 10.21L148.37 10.21Q148.09 11.24 147.69 11.69L147.69 11.69L147.69 11.69Q146.71 12.77 145.22 13.89L145.22 13.89L145.22 13.89Q143.39 15.27 142.52 15.27L142.52 15.27L142.52 15.27Q142.46 15.27 140.78 14.86L140.78 14.86L140.78 14.86Q139.10 14.45 138.32 14.45L138.32 14.45L138.32 14.45Q137.55 14.45 137.41 14.59L137.41 14.59L137.41 14.59Q137.20 14.81 136.74 14.90L136.74 14.90L136.74 14.90Q136.71 14.85 136.72 14.77L136.72 14.77L136.72 14.77Q136.84 14.34 138.19 13.43L138.19 13.43L138.19 13.43Q139.48 12.56 139.87 12.53L139.87 12.53L139.87 12.53Q140.08 12.52 140.57 12.52L140.57 12.52L140.57 12.52Q141.44 12.52 143.07 12.94L143.07 12.94L143.07 12.94Q144.70 13.36 144.79 13.36L144.79 13.36L144.79 13.36Q145.60 13.36 145.98 11.94L145.98 11.94L145.98 11.94Q146.06 11.63 146.06 11.24L146.06 11.24L146.06 11.24Q146.06 9.91 145.08 9.91L145.08 9.91L145.08 9.91Q144.76 9.91 144.41 10.03L144.41 10.03L144.41 10.03Q144.06 10.15 144.05 10.15L144.05 10.15L144.05 10.15Q143.99 10.15 143.98 10.13L143.98 10.13L143.98 10.13Q143.96 10.11 143.92 10.11L143.92 10.11L143.92 10.11Q143.93 10.11 143.35 10.49L143.35 10.49L143.35 10.49Q142.66 10.93 142.06 11.20L142.06 11.20L142.06 11.20Q141.16 11.58 140.43 11.58L140.43 11.58L140.43 11.58Q138.50 11.58 138.50 10.05L138.50 10.05L138.50 10.05Q138.50 9.69 138.63 9.23L138.63 9.23L138.63 9.23Q138.82 8.48 139.43 7.69L139.43 7.69L139.43 7.69Q139.85 7.14 140.92 6.01L140.92 6.01L140.92 6.01Q140.91 5.99 139.80 5.99L139.80 5.99L139.80 5.99Q139.78 5.94 139.79 5.87L139.79 5.87L139.79 5.87Q139.90 5.47 140.92 4.76L140.92 4.76L140.92 4.76Q141.83 4.13 142.10 4.07L142.10 4.07L143.93 4.12L143.93 4.12Q143.44 4.68 142.02 5.91L142.02 5.91L142.02 5.91Q141.27 6.55 141.04 7.42L141.04 7.42L141.04 7.42Q140.91 7.90 140.91 8.26L140.91 8.26L140.91 8.26Q140.91 9.66 142.69 9.66L142.69 9.66L142.69 9.66Q143.16 9.66 144.13 9.28L144.13 9.28L144.90 6.40L144.90 6.40Q144.90 6.24 144.94 5.95L144.94 5.95L144.94 5.95Q144.75 5.88 144.28 5.57L144.28 5.57L144.28 5.57Q144.38 5.29 145.29 4.48L145.29 4.48L145.29 4.48Q146.26 3.61 146.66 3.61L146.66 3.61L146.66 3.61Q146.65 3.61 147.34 4.12L147.34 4.12L147.34 4.12Q147.24 4.68 147.04 5.43L147.04 5.43L146.36 8.11L146.36 8.11Q147.34 7.99 147.34 7.99L147.34 7.99L147.34 7.99Q148.47 7.99 148.47 9.42L148.47 9.42L148.47 9.42Q148.47 9.84 148.37 10.21Z"></path></g><!----><!----></svg>